<svg xmlns="http://www.w3.org/2000/svg" xmlns:xlink="http://www.w3.org/1999/xlink" id="Layer_1" x="0px" y="0px" viewBox="0 0 512 512" style="enable-background:new 0 0 512 512;" xml:space="preserve">
<style type="text/css">
	.st0{fill:#EE7250;}
	.st1{fill:#E0E7EA;}
	.st2{fill:#FBBA38;}
	.st3{fill:none;stroke:#2D2D3E;stroke-width:2;stroke-linecap:round;stroke-linejoin:round;stroke-miterlimit:10;}
</style>
<g id="XMLID_5_">
	<g>
		<path class="st0" d="M308.76,288.19h29.4v0.58v103.51c-19.63,0-33.84-15.9-33.84-35.53L308.76,288.19z"></path>
		<path class="st1" d="M338.15,288.19h-29.4c-13.59-2.75-23.89-14.79-23.89-29.13v-79.93c0-35.57,18.56-54.4,53.29-62.17v35.53    V288.19z"></path>
		<path class="st0" d="M201.91,386.15c-3.6-3.77-5.86-8.93-5.86-14.65l3.33-108.04l1.11,0.04h31.09l1.29-0.04l3.15,108.04    c0,11.41-8.97,20.78-19.98,20.78C210.53,392.28,205.51,389.93,201.91,386.15z"></path>
		<path class="st2" d="M199.38,263.46l1.11-35.48l0.98-3.46c4,1.07,8.3,1.6,12.7,1.6c6.22,0,12.08-1.07,17.32-3.11l0.22,0.53    l1.15,39.92l-1.29,0.04h-31.09L199.38,263.46z"></path>
		<path class="st1" d="M201.47,224.51l-15.63-7.5c-7.37-5.86-11.99-14.3-11.99-24.56h79.93c0,14.7-9.1,25.62-22.29,30.55    c-5.24,2.04-11.1,3.11-17.32,3.11C209.77,226.11,205.46,225.58,201.47,224.51z"></path>
	</g>
	<g>
		<path class="st3" d="M338.15,288.19V152.48v-35.53c-34.73,7.77-53.29,26.6-53.29,62.17v79.93c0,14.34,10.3,26.38,23.89,29.13    l-4.44,68.56c0,19.63,14.21,35.53,33.84,35.53V288.77V288.19z"></path>
		<path class="st3" d="M231.71,223.54l1.15,39.92l3.15,108.04c0,11.41-8.97,20.78-19.98,20.78c-5.51,0-10.52-2.35-14.12-6.13    c-3.6-3.77-5.86-8.93-5.86-14.65l3.33-108.04l1.11-35.48"></path>
		<path class="st3" d="M253.78,116.96v75.49c0,14.7-9.1,25.62-22.29,30.55c-5.24,2.04-11.1,3.11-17.32,3.11    c-4.4,0-8.7-0.53-12.7-1.6l-15.63-7.5c-7.37-5.86-11.99-14.3-11.99-24.56v-75.49"></path>
		<line class="st3" x1="200.49" y1="116.96" x2="200.49" y2="188.01"></line>
		<line class="st3" x1="227.14" y1="116.96" x2="227.14" y2="188.01"></line>
		<line class="st3" x1="308.76" y1="288.19" x2="338.15" y2="288.19"></line>
		<line class="st3" x1="200.49" y1="263.5" x2="231.58" y2="263.5"></line>
		<line class="st3" x1="173.85" y1="192.45" x2="253.78" y2="192.45"></line>
	</g>
</g>
</svg>