<svg xmlns="http://www.w3.org/2000/svg" id="Layer_1" data-name="Layer 1" viewBox="0 0 128 128"><defs><style>.cls-1{fill:#2e79bd;}.cls-2{fill:#2d3e50;}</style></defs><title>b</title><path class="cls-1" d="M47.27133,83.13233l.0458-.01768c1.91365-.738,9.602-2.29665,11.672-4.92374L58.989,78.191a7.36911,7.36911,0,0,0,1.36635-6.62076,6.38984,6.38984,0,0,0-5.77858-4.58935,7.46248,7.46248,0,0,0-6.29354,2.90118c-2.07188,2.62905-1.51515,10.58368-1.776,12.60395l-.00625.04843A.55787.55787,0,0,0,47.27133,83.13233Z"></path><path class="cls-1" d="M61.42036,70.346c.01535.0519.02686.10462.041.15675.22526-.22337.44956-.44908.67245-.67415,2.41041-2.45185,4.83289-5.12843,7.19717-7.95737,2.45251-2.93041,4.58846-5.72756,6.52653-8.55061,1.08383-1.57922,2.04506-3.07435,2.9361-4.56856.14942-.25153.29873-.50571.4453-.75972.08032-.14069.16082-.27879.24845-.428l.204-.36266c.15549-.27842.311-.55692.45984-.83619.52843-.9748.91461-1.74632,1.25019-2.50234l.00122-.00141a1.20884,1.20884,0,0,0-.07935-1.122,1.20123,1.20123,0,0,0-1.65369-.38311c-.70082.43827-1.41282.92638-2.30257,1.58185-.2597.1903-.51515.38426-.76941.57686l-.33724.25667c-.12556.09881-.25123.19766-.37561.29507-.23369.1832-.46613.365-.69435.55048-1.3577,1.09078-2.70548,2.24712-4.11937,3.53926-2.52609,2.31153-5.00191,4.813-7.563,7.64894-2.47427,2.73323-4.791,5.50186-6.88549,8.2285q-.28978.38006-.577.76235a6.37509,6.37509,0,0,1,5.375,4.54936Z"></path><path class="cls-2" d="M120.64909,12.77921H68.65082V6.15353a4.6508,4.6508,0,1,0-9.3016,0v6.62568H7.35091A6.0184,6.0184,0,0,0,1.3325,18.79758v1.12626a6.01837,6.01837,0,0,0,6.01841,6.01834V98.18779a5.03792,5.03792,0,0,0,5.03791,5.03791H35.12737l-4.68095,17.08224a4.89517,4.89517,0,0,0,9.4424,2.58684l2.19966-8.03454,1.03326-3.77092,2.15445-7.86362H82.72382l2.15445,7.86362,1.03322,3.77092,2.19973,8.03454a4.89258,4.89258,0,0,0,4.71362,3.60249,4.94692,4.94692,0,0,0,1.29973-.176,4.8922,4.8922,0,0,0,3.429-6.01334L92.87259,103.2257h22.7411a5.0354,5.0354,0,0,0,5.03539-5.03539V25.94218a6.01837,6.01837,0,0,0,6.01841-6.01834V18.79758A6.0184,6.0184,0,0,0,120.64909,12.77921Zm-8.296,82.15052H15.64685V30.41955h96.70626Z"></path></svg>