<svg xmlns="http://www.w3.org/2000/svg" xmlns:xlink="http://www.w3.org/1999/xlink" class="icon" viewBox="0 0 1024 1024" width="40" height="40"><defs><style type="text/css"></style></defs><path d="M191.5904 810.3424l34.4064-34.4064 34.38592 34.4064-34.39616 34.38592z" fill="#EB6456"></path><path d="M225.9968 861.0816l-50.688-51.2 50.688-51.2 50.688 51.2z m-18.1248-51.2l18.1248 18.1248 18.1248-18.1248-18.1248-18.1248z" fill="#5F3104"></path><path d="M271.28832 643.80928l490.55744-490.56768 114.04288 114.04288L385.32096 757.8624z" fill="#FFB94A"></path><path d="M385.3312 774.144L254.976 643.7888l506.88-506.7776L892.1088 267.264z m-97.792-130.3552l97.792 97.792L859.5456 267.264l-97.6896-97.6896z" fill="#5F3104"></path><path d="M269.4144 645.632l-5.3248 5.3248L204.8 750.6944 283.4432 829.44l94.4128-64.6144 5.632-5.5296z" fill="#D8D8D8"></path><path d="M282.112 844.8l-92.16-92.16L256 642.8672l13.4144-13.5168L399.36 759.7056l-15.36 15.0528z m-63.2832-95.9488l66.048 66.048 81.92-55.808-96.1536-96.1536z" fill="#5F3104"></path><path d="M727.40864 187.62752l34.4064-34.38592 114.03264 114.04288-34.39616 34.38592z" fill="#979797"></path><path d="M841.4208 317.952L711.168 187.6992l51.2-50.688L892.1088 267.264z m-97.6896-130.2528l97.6896 97.6896 18.1248-18.1248-97.6896-97.6896z" fill="#5F3104"></path><path d="M770.83648 803.21536l34.38592-34.4064 34.39616 34.4064-34.39616 34.38592z" fill="#FFB94A"></path><path d="M805.2736 853.8112l-51.2-50.688 51.2-51.2 51.2 51.2z m-18.1248-50.688l18.1248 18.1248 18.1248-18.1248-18.1248-18.1248z" fill="#5F3104"></path><path d="M148.13184 267.35616l114.04288-114.04288 490.55744 490.55744-114.03264 114.04288z" fill="#EB6456"></path><path d="M638.6688 774.144L131.8912 267.264 262.144 137.0112l506.88 506.7776zM164.4544 267.264l474.2144 474.3168 97.792-97.792L262.144 169.5744z" fill="#5F3104"></path><path d="M640.512 759.7056l5.3248 5.3248 99.7376 59.8016 79.1552-79.1552-64.6144-94.4128-5.5296-5.632z" fill="#D8D8D8"></path><path d="M747.52 839.68l-109.7728-66.56L624.64 759.7056l129.9456-130.3552L769.6384 645.12 839.68 747.52z m-89.4976-80.6912l85.9136 51.2 66.048-66.048-55.808-81.92z" fill="#5F3104"></path><path d="M148.1216 267.29472l114.04288-114.04288 34.39616 34.38592-114.04288 114.04288z" fill="#979797"></path><path d="M182.5792 317.952l-50.688-50.688L262.144 137.0112l50.688 50.688z m-18.1248-50.688l18.1248 18.1248 97.6896-97.6896-18.1248-18.1248z" fill="#5F3104"></path></svg>