<svg xmlns="http://www.w3.org/2000/svg" xmlns:xlink="http://www.w3.org/1999/xlink" class="icon" viewBox="0 0 1024 1024" width="40" height="40"><defs><style type="text/css"></style></defs><path d="M383.066 821.3L0.018 746.648l213.336 213.336h170.65z" fill="#F5BA45"></path><path d="M469.19 105.482L348.38 478.656l318.676 373.332 82.654-233.336z" fill="#E8A93A"></path><path d="M853.332 234.666L554.656 851.988l231.646 22.656s95.152-471.546 114.31-541.826l-47.28-98.152z" fill="#F5BA45"></path><path d="M228.478 791.178l57.468 168.806h98.058l-0.938-138.684zM789.336 366.942l81.682 97.154c7.938-36.904 18.626-85.904 23.75-107.746l-62.53-78.124-42.902 88.716zM800.022 806.958l-162.214-126.87-83.152 171.9 231.646 22.656z" opacity=".1"></path><path d="M170.668 64.016l0.406 640.414 170.276 255.554h351.832l93.122-85.34c-0.002 0-608.98-797.318-615.636-810.628zM853.332 234.666l-63.996 132.276 234.646 81.06z" fill="#FECD57"></path></svg>