<svg xmlns="http://www.w3.org/2000/svg" xmlns:xlink="http://www.w3.org/1999/xlink" class="icon" viewBox="0 0 1024 1024" width="40" height="40"><defs><style type="text/css"></style></defs><path d="M808.96 116.053333c-61.44-44.373333-133.12-78.506667-211.626667-92.16 0 71.68 0 133.12-3.413333 194.56 37.546667 3.413333 75.093333 10.24 109.226667 17.066667 13.653333-61.44 61.44-98.986667 105.813333-119.466667zM443.733333 92.16c30.72 30.72 47.786667 71.68 47.786667 122.88h64.853333c0-61.44 3.413333-126.293333 3.413334-197.973333-17.066667-3.413333-34.133333-3.413333-51.2-3.413334-54.613333 0-109.226667 10.24-157.013334 27.306667 34.133333 10.24 64.853333 23.893333 92.16 51.2z" fill=""></path><path d="M460.8 218.453333c0-40.96-13.653333-75.093333-37.546667-102.4C378.88 75.093333 310.613333 68.266667 293.546667 68.266667c-119.466667 58.026667-211.626667 163.84-252.586667 290.133333 78.506667-68.266667 235.52-129.706667 419.84-139.946667zM839.68 139.946667c-30.72 10.24-92.16 40.96-102.4 105.813333 102.4 30.72 187.733333 85.333333 259.413333 157.013333-23.893333-102.4-81.92-194.56-157.013333-262.826666zM768 532.48c-34.133333-88.746667-68.266667-177.493333-68.266667-259.413333-37.546667-10.24-71.68-17.066667-105.813333-20.48-10.24 368.64-54.613333 556.373333-160.426667 747.52 27.306667 3.413333 51.2 6.826667 78.506667 6.826666 109.226667 0 211.626667-37.546667 293.546667-98.986666 64.853333-102.4 13.653333-242.346667-37.546667-375.466667z" fill=""></path><path d="M993.28 453.973333c-75.093333-92.16-167.253333-143.36-259.413333-170.666666 3.413333 71.68 34.133333 153.6 64.853333 238.933333 44.373333 116.053333 88.746667 235.52 64.853333 337.92 88.746667-88.746667 143.36-211.626667 143.36-348.16 0-17.066667 0-34.133333-3.413333-51.2-3.413333 0-6.826667-3.413333-10.24-6.826667zM238.933333 583.68c88.746667-105.813333 197.973333-238.933333 218.453334-331.093333-204.8 13.653333-382.293333 95.573333-426.666667 167.253333 0 3.413333-3.413333 3.413333-6.826667 6.826667-6.826667 27.306667-6.826667 58.026667-6.826666 88.746666 0 98.986667 30.72 191.146667 78.506666 266.24 20.48-47.786667 71.68-112.64 143.36-197.973333zM559.786667 252.586667h-68.266667c-17.066667 102.4-129.706667 235.52-225.28 354.986666-68.266667 81.92-139.946667 170.666667-143.36 208.213334 68.266667 88.746667 163.84 153.6 276.48 180.906666 105.813333-194.56 150.186667-375.466667 160.426667-744.106666z" fill=""></path></svg>