<svg xmlns="http://www.w3.org/2000/svg" xmlns:xlink="http://www.w3.org/1999/xlink" class="icon" viewBox="0 0 1024 1024" width="40" height="40"><defs><style type="text/css"></style></defs><path d="M546.133333 102.4a102.4 102.4 0 1 1-204.8 0 102.4 102.4 0 0 1 204.8 0z m196.608 387.754667l-136.533333-136.533334a34.133333 34.133333 0 0 0-27.306667-12.288H256a50.517333 50.517333 0 0 0-51.2 43.690667l-68.266667 525.653333a32.9728 32.9728 0 0 0 0 9.557334 34.133333 34.133333 0 0 0 34.133334 34.133333 33.450667 33.450667 0 0 0 34.133333-23.210667l81.92-265.557333 17.749333-56.661333 27.306667 30.037333L409.6 723.626667v197.973333a34.133333 34.133333 0 0 0 68.266667 0v-204.8a32.768 32.768 0 0 0-5.461334-15.018667L374.101333 580.266667l68.266667-170.666667h116.736l136.533333 125.610667a33.450667 33.450667 0 0 0 25.258667 11.605333 34.133333 34.133333 0 0 0 30.037333-34.816 33.450667 33.450667 0 0 0-8.192-21.845333zM955.733333 769.365333a51.2 51.2 0 1 0 0 102.4 51.2 51.2 0 0 0 0-102.4z m-221.184-104.448V614.4a17.066667 17.066667 0 1 0-34.133333 0v50.517333a33.450667 33.450667 0 0 0-17.066667 28.672v228.010667a34.133333 34.133333 0 0 0 68.266667 0v-228.010667a33.450667 33.450667 0 0 0-17.066667-28.672z" fill=""></path></svg>