<svg xmlns="http://www.w3.org/2000/svg" xmlns:xlink="http://www.w3.org/1999/xlink" class="icon" viewBox="0 0 1024 1024" width="40" height="40"><defs><style type="text/css"></style></defs><path d="M288.64 911.928h-0.032c-73.104 0-125.8-12.64-142.144-17.36-0.856-0.12-1.72 0.08-2.568-0.144a24.752 24.752 0 0 1-9.704-4.632 23.88 23.88 0 0 1-9.456-17.456c-13.56-50.032-75.632-333.304 174.928-583.864 156.08-156.08 325.12-188.832 439.44-188.832 73.08 0 125.84 13.368 142.16 18.064a25 25 0 0 1 12.296 5.352 24.08 24.08 0 0 1 9.4 17.496c13.52 49.904 75.632 332.664-174.912 583.216-156.072 156.088-325.096 188.16-439.408 188.16z m-119.568-61.008c20.136 5.008 63.24 13.008 119.544 13.008h0.024c105.24 0 261-29.616 405.464-174.08 219.552-219.568 177.952-470.784 164.536-528.84-20.152-5-63.28-13.528-119.536-13.528-105.248 0-261.04 30.056-405.504 174.52-219.632 219.64-177.96 470.88-164.528 528.92z"></path><path d="M395.664 807.44a60.736 60.736 0 0 1-1.832-9.272c-110.92 56.008-195.648 62.768-228.776 62.84 0.656-32.408 8.424-117.792 64.216-228.968-10.504-2.864-21-4.624-29.904-12.944-66.28 132.216-67.256 230.136-66.256 254.328a16.088 16.088 0 0 0 8.984 17.472 15.504 15.504 0 0 0 8.728 1.72c2.96 0.184 7.552 0.384 13.688 0.384h0.008c35.16 0 127.088-6.928 246.496-67.792-7.256-3.64-13.208-10.144-15.352-17.768zM553 255.44a40.672 40.672 0 0 1-0.584-8.176c-3.456-1.912-6.24-4.176-8.232-6.744-51.736 33.536-106.976 77.2-163.84 134.064-57.264 57.256-101.208 112.824-135.128 164.92 10.488 3.352 19.808 8.648 29.024 14.52 32.416-49.584 74.384-102.472 128.728-156.816 53.72-53.72 105.672-95 154.352-127a72.216 72.216 0 0 1-4.32-14.768zM769.336 482.664c-7.552 0.08-14.224-3.024-19.184-7.912-31.96 48.144-72.856 99.288-125.4 151.832-55.504 55.504-109.176 97.88-159.256 130.312 3.32 2.784 5.992 6.416 7.544 10.984 2.584 0.376 5.16 0.752 7.736 1.112 6.336 0.896 11.032 3.288 14.304 6.584 48.384-32.464 99.624-73.704 152.296-126.368 57.352-57.352 101.352-113 135.296-165.16a35.856 35.856 0 0 0-13.336-1.384zM894.04 142.288a16.056 16.056 0 0 0-8.608-9.48 15.144 15.144 0 0 0-8.56-1.624c-2.96-0.192-7.552-0.384-13.68-0.384-34.904 0-125.8 6.84-243.992 66.528 4.144 4.184 6.952 9.8 7.312 16.752 4.016 2.824 7.856 5.976 11.56 9.472 108.864-54.08 191.888-60.696 224.592-60.76-0.632 31.704-8.032 114.136-60.664 221.864 9.352 7.936 16.256 16.344 23.44 25.904 69.192-135.072 70.176-235.416 69.16-260.112a16.24 16.24 0 0 0-0.56-8.16z"></path><path d="M359.184 501.416a16.024 16.024 0 0 1-12.432-26.088c-0.088-2.984-2.848-11.808-12.528-21.488-9.672-9.672-18.496-12.44-21.48-12.52a16 16 0 0 1-21.4-23.736c15.016-15.016 42.576-9.296 65.512 13.624 9.328 9.336 16.296 20.248 19.632 30.744 4.416 13.88 2.224 26.552-5.992 34.784-3.12 3.12-7.216 4.68-11.312 4.68zM415.344 446.192a16 16 0 0 1-12.424-26.08c-0.096-2.984-2.856-11.816-12.528-21.488-9.672-9.672-18.496-12.44-21.488-12.528a16.008 16.008 0 0 1-21.4-23.744c8.224-8.208 20.896-10.416 34.784-5.992 10.496 3.344 21.408 10.32 30.728 19.64s16.296 20.224 19.632 30.72c4.416 13.88 2.232 26.56-5.992 34.784a15.92 15.92 0 0 1-11.312 4.688zM471.192 389.416a16 16 0 0 1-12.424-26.088c-0.096-2.984-2.856-11.808-12.536-21.488s-18.504-12.44-21.496-12.528a16 16 0 0 1-21.384-23.76c15.04-14.984 42.568-9.248 65.504 13.656 22.928 22.944 28.664 50.496 13.64 65.512a15.88 15.88 0 0 1-11.304 4.696zM416.32 891.656a16 16 0 0 1-15.216-11.064c-16.808-51.816-51.472-105.744-97.608-151.864-48.128-48.128-104.176-83.448-157.832-99.464a16.016 16.016 0 0 1-10.584-20.464l34.504-101.88a15.96 15.96 0 0 1 19.736-10.192c56.648 16.904 157.248 81.304 211.056 135.112 48.888 48.88 126.088 143.48 144.664 200.76a16 16 0 0 1-10.128 20.104l-113.504 38.128a16.016 16.016 0 0 1-5.088 0.824zM170.576 603.776c53.688 19.256 108.36 55.136 155.544 102.32 45.192 45.168 80.272 97.672 100.032 149.376l82.584-27.744C485.16 776.496 420.48 697.176 377.76 654.456c-45.528-45.52-129.448-100.912-183.032-121.984l-24.152 71.304z"></path><path d="M416.32 891.656a16 16 0 0 1-15.216-11.064c-16.808-51.816-51.472-105.744-97.608-151.864-48.128-48.128-104.176-83.448-157.832-99.464a16.016 16.016 0 0 1-10.584-20.464l34.504-101.88a15.96 15.96 0 0 1 19.736-10.192c56.648 16.904 157.248 81.304 211.056 135.112 48.888 48.88 126.088 143.48 144.664 200.76a16 16 0 0 1-10.128 20.104l-113.504 38.128a16.016 16.016 0 0 1-5.088 0.824zM170.576 603.776c53.688 19.256 108.36 55.136 155.544 102.32 45.192 45.168 80.272 97.672 100.032 149.376l82.584-27.744C485.16 776.496 420.48 697.176 377.76 654.456c-45.528-45.52-129.448-100.912-183.032-121.984l-24.152 71.304zM835.848 547.512c-1.632 0-3.296-0.256-4.944-0.792-57.272-18.576-151.88-95.768-200.768-144.648-53.808-53.808-118.2-154.408-135.112-211.064a16.008 16.008 0 0 1 10.2-19.736l101.888-34.496a16.024 16.024 0 0 1 20.464 10.576c16.008 53.664 51.328 109.712 99.44 157.824 46.168 46.16 100.096 80.816 151.872 97.592a16 16 0 0 1 10.232 20.312l-38.12 113.504a15.976 15.976 0 0 1-15.152 10.928zM530.776 196.408c21.072 53.592 76.464 137.504 121.984 183.04 42.72 42.712 122.048 107.384 173.28 130.968l27.736-82.576c-51.664-19.744-104.168-54.816-149.384-100.024-47.176-47.176-83.048-101.848-102.304-155.544l-71.312 24.136z"></path></svg>